<svg width="34" height="34" viewBox="0 0 34 34" fill="none" xmlns="http://www.w3.org/2000/svg">
<g clip-path="url(#clip0_43_113)">
<path d="M17 0C18.5605 0 20.0658 0.199219 21.5156 0.597656C22.9655 0.996094 24.3213 1.56608 25.583 2.30762C26.8447 3.04915 27.9902 3.93457 29.0195 4.96387C30.0488 5.99316 30.9342 7.14421 31.6758 8.41699C32.4173 9.68978 32.9873 11.0456 33.3857 12.4844C33.7842 13.9232 33.9889 15.4284 34 17C34 17.6087 33.9447 18.2396 33.834 18.8926C33.7233 19.5456 33.5462 20.193 33.3027 20.835C33.0592 21.4769 32.7659 22.0745 32.4229 22.6279C32.0798 23.1813 31.6702 23.6738 31.1943 24.1055C30.7184 24.5371 30.1816 24.8747 29.584 25.1182C28.9863 25.3617 28.3333 25.4889 27.625 25.5C27.0273 25.5 26.4463 25.4225 25.8818 25.2676C25.3174 25.1126 24.7861 24.8802 24.2881 24.5703C23.79 24.2604 23.3473 23.8952 22.96 23.4746C22.5726 23.054 22.235 22.5671 21.9473 22.0137C21.6152 22.5339 21.2334 23.0042 20.8018 23.4248C20.3701 23.8454 19.8997 24.2161 19.3906 24.5371C18.8815 24.8581 18.3392 25.096 17.7637 25.251C17.1882 25.4059 16.5794 25.4889 15.9375 25.5C14.8086 25.5 13.7848 25.2565 12.8662 24.7695C11.9476 24.2826 11.1673 23.6351 10.5254 22.8271C9.88346 22.0192 9.38542 21.1117 9.03125 20.1045C8.67708 19.0973 8.5 18.0625 8.5 17C8.5 15.9486 8.67155 14.9137 9.01465 13.8955C9.35775 12.8773 9.85579 11.9697 10.5088 11.1729C11.1618 10.376 11.9476 9.73405 12.8662 9.24707C13.7848 8.76009 14.8086 8.51107 15.9375 8.5C16.9889 8.5 17.9629 8.72689 18.8594 9.18066C19.7559 9.63444 20.5527 10.2542 21.25 11.04V8.5H23.375V19.125C23.375 19.7116 23.4857 20.2594 23.707 20.7686C23.9284 21.2777 24.2327 21.7314 24.6201 22.1299C25.0075 22.5283 25.4557 22.8327 25.9648 23.043C26.474 23.2533 27.0273 23.3639 27.625 23.375C28.112 23.375 28.5547 23.2754 28.9531 23.0762C29.3516 22.877 29.7113 22.6058 30.0322 22.2627C30.3532 21.9196 30.6299 21.5322 30.8623 21.1006C31.0947 20.6689 31.2829 20.2096 31.4268 19.7227C31.5706 19.2357 31.6813 18.7653 31.7588 18.3115C31.8363 17.8577 31.875 17.4206 31.875 17C31.875 15.6387 31.6979 14.3271 31.3438 13.0654C30.9896 11.8037 30.4915 10.6195 29.8496 9.5127C29.2077 8.40592 28.4274 7.39876 27.5088 6.49121C26.5902 5.58366 25.5885 4.80892 24.5039 4.16699C23.4193 3.52507 22.235 3.02148 20.9512 2.65625C19.6673 2.29102 18.3503 2.11393 17 2.125C15.6387 2.125 14.3271 2.30208 13.0654 2.65625C11.8037 3.01042 10.6195 3.50846 9.5127 4.15039C8.40592 4.79232 7.39876 5.57259 6.49121 6.49121C5.58366 7.40983 4.80892 8.41146 4.16699 9.49609C3.52507 10.5807 3.02148 11.765 2.65625 13.0488C2.29102 14.3327 2.11393 15.6497 2.125 17C2.125 18.3613 2.30208 19.6729 2.65625 20.9346C3.01042 22.1963 3.50846 23.3805 4.15039 24.4873C4.79232 25.5941 5.57259 26.6012 6.49121 27.5088C7.40983 28.4163 8.41146 29.1911 9.49609 29.833C10.5807 30.4749 11.765 30.9785 13.0488 31.3438C14.3327 31.709 15.6497 31.8861 17 31.875C18.9701 31.875 20.8682 31.4987 22.6943 30.7461L23.5078 32.7051C22.4674 33.1367 21.4049 33.4577 20.3203 33.668C19.2357 33.8783 18.1289 33.9889 17 34C15.4395 34 13.9342 33.8008 12.4844 33.4023C11.0345 33.0039 9.67871 32.4339 8.41699 31.6924C7.15527 30.9508 6.00977 30.0654 4.98047 29.0361C3.95117 28.0068 3.06576 26.8558 2.32422 25.583C1.58268 24.3102 1.0127 22.96 0.614258 21.5322C0.21582 20.1045 0.0110677 18.5938 0 17C0 15.4395 0.199219 13.9342 0.597656 12.4844C0.996094 11.0345 1.56608 9.67871 2.30762 8.41699C3.04915 7.15527 3.93457 6.00977 4.96387 4.98047C5.99316 3.95117 7.14421 3.06576 8.41699 2.32422C9.68978 1.58268 11.04 1.0127 12.4678 0.614258C13.8955 0.21582 15.4062 0.0110677 17 0ZM15.9375 23.375C16.7676 23.375 17.5091 23.1868 18.1621 22.8105C18.8151 22.4342 19.374 21.9362 19.8389 21.3164C20.3037 20.6966 20.6523 20.016 20.8848 19.2744C21.1172 18.5329 21.2389 17.7747 21.25 17C21.25 16.2474 21.1283 15.4948 20.8848 14.7422C20.6413 13.9896 20.2926 13.3034 19.8389 12.6836C19.3851 12.0638 18.8317 11.5713 18.1787 11.2061C17.5257 10.8408 16.7786 10.6471 15.9375 10.625C15.1074 10.625 14.3659 10.8132 13.7129 11.1895C13.0599 11.5658 12.501 12.0638 12.0361 12.6836C11.5713 13.3034 11.2227 13.984 10.9902 14.7256C10.7578 15.4671 10.6361 16.2253 10.625 17C10.625 17.7526 10.7467 18.5052 10.9902 19.2578C11.2337 20.0104 11.5824 20.6966 12.0361 21.3164C12.4899 21.9362 13.0433 22.4287 13.6963 22.7939C14.3493 23.1592 15.0964 23.3529 15.9375 23.375Z" fill="#32456F"/>
</g>
<defs>
<clipPath id="clip0_43_113">
<rect width="34" height="34" fill="white"/>
</clipPath>
</defs>
</svg>
