<svg width="34" height="34" viewBox="0 0 34 34" fill="none" xmlns="http://www.w3.org/2000/svg">
<path d="M17.354 2.08245C16.3623 2.01162 15.3282 2.23828 14.4073 2.77662C13.8158 3.11531 13.297 3.56742 12.8805 4.10705C12.4641 4.64667 12.1583 5.26319 11.9806 5.92125C11.8029 6.57931 11.7569 7.26597 11.8451 7.94186C11.9334 8.61774 12.1542 9.26957 12.4948 9.85995L22.8932 27.8516C24.324 30.3449 27.4973 31.1666 29.9907 29.7499C32.4698 28.3333 33.2915 25.1458 31.8748 22.6666L21.5048 4.67495C21.0765 3.93735 20.4745 3.31558 19.751 2.86375C19.0276 2.41191 18.2047 2.1437 17.354 2.08245ZM9.6615 9.57662L2.12484 22.6666C1.6656 23.4538 1.42132 24.3478 1.4165 25.2591C1.4165 25.9419 1.55098 26.618 1.81227 27.2487C2.07355 27.8795 2.45652 28.4527 2.9393 28.9355C3.42209 29.4183 3.99524 29.8012 4.62604 30.0625C5.25683 30.3238 5.93291 30.4583 6.61567 30.4583C7.52701 30.4555 8.42161 30.2132 9.2098 29.7557C9.99799 29.2982 10.6521 28.6416 11.1065 27.8516V27.8658L15.5832 20.1024C13.6707 16.8441 11.7157 13.5999 9.959 10.2424C9.84567 10.0299 9.7465 9.80328 9.67567 9.57662H9.6615Z" fill="#32456F"/>
</svg>
