<svg width="34" height="34" viewBox="0 0 34 34" fill="none" xmlns="http://www.w3.org/2000/svg">
<path d="M6.55369 12.5772C7.11982 11.2314 7.94264 10.0087 8.97619 8.97746C10.0075 7.94327 11.2307 7.12038 12.5774 6.55496C15.3533 5.40169 18.4704 5.38085 21.2615 6.49687C21.2895 7.41413 21.6739 8.28436 22.333 8.92287C22.9922 9.56137 23.8742 9.91787 24.7919 9.91671C26.7554 9.91671 28.3335 8.33854 28.3335 6.37504C28.3335 4.41154 26.7554 2.83337 24.7919 2.83337C23.8158 2.83337 22.9332 3.22437 22.2943 3.86046C18.8504 2.48204 14.895 2.50329 11.478 3.94404C9.79219 4.65237 8.27636 5.67237 6.97303 6.97429C5.65705 8.29066 4.61395 9.85394 3.90359 11.5744C3.19323 13.2949 2.82959 15.1387 2.83353 17H5.66686C5.66686 15.4615 5.96578 13.974 6.55369 12.5772ZM27.4453 21.4229C26.8772 22.7715 26.0612 23.9842 25.0228 25.0226C23.9844 26.061 22.7717 26.877 21.4216 27.4451C18.6457 28.5984 15.5286 28.6192 12.7374 27.5032C12.7102 26.586 12.3262 25.7155 11.6672 25.0769C11.0082 24.4383 10.1262 24.0819 9.20853 24.0834C7.24503 24.0834 5.66686 25.6615 5.66686 27.625C5.66686 29.5885 7.24503 31.1667 9.20853 31.1667C10.1846 31.1667 11.0672 30.7757 11.7061 30.1396C13.3885 30.8187 15.1859 31.1674 17.0002 31.1667C19.7861 31.1721 22.5116 30.3545 24.8346 28.8166C27.1575 27.2787 28.9746 25.089 30.0576 22.5222C30.7935 20.7744 31.1708 18.8965 31.1669 17H28.3335C28.3371 18.519 28.035 20.0231 27.4453 21.4229Z" fill="#32456F"/>
<path d="M17.0001 10.5712C13.4556 10.5712 10.5713 13.4555 10.5713 17C10.5713 20.5445 13.4556 23.4288 17.0001 23.4288C20.5446 23.4288 23.429 20.5445 23.429 17C23.429 13.4555 20.5446 10.5712 17.0001 10.5712Z" fill="#32456F"/>
</svg>
