<svg width="34" height="34" viewBox="0 0 34 34" fill="none" xmlns="http://www.w3.org/2000/svg">
<path d="M4.25 24.7394V29.0461C4.25 29.4428 4.56167 29.7544 4.95833 29.7544H9.265C9.44917 29.7544 9.63333 29.6836 9.76083 29.5419L25.2308 14.0861L19.9183 8.77361L4.4625 24.2294C4.32083 24.3711 4.25 24.5411 4.25 24.7394ZM29.3392 9.97777C29.4705 9.84671 29.5747 9.69104 29.6458 9.51966C29.7169 9.34828 29.7535 9.16456 29.7535 8.97902C29.7535 8.79348 29.7169 8.60977 29.6458 8.43839C29.5747 8.26701 29.4705 8.11133 29.3392 7.98027L26.0242 4.66527C25.8931 4.53394 25.7374 4.42975 25.5661 4.35866C25.3947 4.28757 25.211 4.25098 25.0254 4.25098C24.8399 4.25098 24.6562 4.28757 24.4848 4.35866C24.3134 4.42975 24.1577 4.53394 24.0267 4.66527L21.4342 7.25777L26.7467 12.5703L29.3392 9.97777Z" fill="#32456F"/>
</svg>
