<svg width="34" height="34" viewBox="0 0 34 34" fill="none" xmlns="http://www.w3.org/2000/svg">
<path d="M7.08333 29.751C6.30417 29.751 5.63739 29.4738 5.083 28.9194C4.52861 28.365 4.25094 27.6978 4.25 26.9176V7.08431C4.25 6.30514 4.52767 5.63837 5.083 5.08398C5.63833 4.52959 6.30511 4.25192 7.08333 4.25098H22.6667L29.75 11.3343V26.9176C29.75 27.6968 29.4728 28.3641 28.9184 28.9194C28.364 29.4747 27.6968 29.7519 26.9167 29.751H7.08333ZM9.91667 24.0843H24.0833V21.251H9.91667V24.0843ZM9.91667 18.4176H24.0833V15.5843H9.91667V18.4176ZM21.25 12.751H26.9167L21.25 7.08431V12.751ZM9.91667 12.751H17V9.91764H9.91667V12.751Z" fill="#32456F"/>
</svg>
