<svg width="34" height="34" viewBox="0 0 34 34" fill="none" xmlns="http://www.w3.org/2000/svg">
<path d="M7.08333 29.751C6.30417 29.751 5.63739 29.4738 5.083 28.9194C4.52861 28.365 4.25094 27.6978 4.25 26.9176V7.08431C4.25 6.30514 4.52767 5.63837 5.083 5.08398C5.63833 4.52959 6.30511 4.25192 7.08333 4.25098H26.9167C27.6958 4.25098 28.3631 4.52864 28.9184 5.08398C29.4737 5.63931 29.7509 6.30609 29.75 7.08431V26.9176C29.75 27.6968 29.4728 28.3641 28.9184 28.9194C28.364 29.4747 27.6968 29.7519 26.9167 29.751H7.08333ZM17 22.6676C17.8972 22.6676 18.7118 22.4079 19.4438 21.8885C20.1757 21.369 20.6833 20.6843 20.9667 19.8343H26.9167V7.08431H7.08333V19.8343H13.0333C13.3167 20.6843 13.8243 21.369 14.5562 21.8885C15.2882 22.4079 16.1028 22.6676 17 22.6676Z" fill="#32456F"/>
</svg>
