<svg width="30" height="32" viewBox="0 0 30 32" fill="none" xmlns="http://www.w3.org/2000/svg">
<path d="M19.9997 28.6666C20 29.5076 19.6824 30.3176 19.1106 30.9342C18.5388 31.5509 17.755 31.9286 16.9164 31.9916L16.6664 32H13.3331C12.4921 32.0002 11.6821 31.6826 11.0655 31.1108C10.4489 30.539 10.0712 29.7552 10.0081 28.9166L9.99975 28.6666H19.9997ZM14.9997 0.333313C18.0247 0.333263 20.9314 1.50814 23.1068 3.6101C25.2821 5.71207 26.556 8.57679 26.6597 11.6L26.6664 12V18.2733L29.7031 24.3466C29.8356 24.6116 29.9019 24.9048 29.8964 25.2011C29.8908 25.4973 29.8135 25.7878 29.6712 26.0476C29.5288 26.3075 29.3256 26.5289 29.0789 26.693C28.8322 26.8572 28.5494 26.959 28.2547 26.99L28.0631 27H1.93641C1.64002 27.0001 1.34803 26.9283 1.08545 26.7908C0.822873 26.6533 0.597546 26.4542 0.428776 26.2106C0.260006 25.9669 0.152827 25.686 0.116421 25.3918C0.0800161 25.0977 0.115471 24.7991 0.219748 24.5216L0.296414 24.3466L3.33308 18.2733V12C3.33308 8.90579 4.56224 5.93832 6.75017 3.7504C8.93809 1.56248 11.9056 0.333313 14.9997 0.333313Z" fill="#32456F"/>
</svg>
