<svg width="34" height="34" viewBox="0 0 34 34" fill="none" xmlns="http://www.w3.org/2000/svg">
<path d="M26.9168 5.66671H25.5002V4.25004C25.5002 3.40004 24.9335 2.83337 24.0835 2.83337C23.2335 2.83337 22.6668 3.40004 22.6668 4.25004V5.66671H11.3335V4.25004C11.3335 3.40004 10.7668 2.83337 9.91683 2.83337C9.06683 2.83337 8.50016 3.40004 8.50016 4.25004V5.66671H7.0835C4.67516 5.66671 2.8335 7.50837 2.8335 9.91671V11.3334H31.1668V9.91671C31.1668 7.50837 29.3252 5.66671 26.9168 5.66671ZM2.8335 26.9167C2.8335 29.325 4.67516 31.1667 7.0835 31.1667H26.9168C29.3252 31.1667 31.1668 29.325 31.1668 26.9167V14.1667H2.8335V26.9167ZM24.0835 17C24.9335 17 25.5002 17.5667 25.5002 18.4167C25.5002 19.2667 24.9335 19.8334 24.0835 19.8334C23.2335 19.8334 22.6668 19.2667 22.6668 18.4167C22.6668 17.5667 23.2335 17 24.0835 17ZM24.0835 22.6667C24.9335 22.6667 25.5002 23.2334 25.5002 24.0834C25.5002 24.9334 24.9335 25.5 24.0835 25.5C23.2335 25.5 22.6668 24.9334 22.6668 24.0834C22.6668 23.2334 23.2335 22.6667 24.0835 22.6667ZM17.0002 17C17.8502 17 18.4168 17.5667 18.4168 18.4167C18.4168 19.2667 17.8502 19.8334 17.0002 19.8334C16.1502 19.8334 15.5835 19.2667 15.5835 18.4167C15.5835 17.5667 16.1502 17 17.0002 17ZM17.0002 22.6667C17.8502 22.6667 18.4168 23.2334 18.4168 24.0834C18.4168 24.9334 17.8502 25.5 17.0002 25.5C16.1502 25.5 15.5835 24.9334 15.5835 24.0834C15.5835 23.2334 16.1502 22.6667 17.0002 22.6667ZM9.91683 17C10.7668 17 11.3335 17.5667 11.3335 18.4167C11.3335 19.2667 10.7668 19.8334 9.91683 19.8334C9.06683 19.8334 8.50016 19.2667 8.50016 18.4167C8.50016 17.5667 9.06683 17 9.91683 17ZM9.91683 22.6667C10.7668 22.6667 11.3335 23.2334 11.3335 24.0834C11.3335 24.9334 10.7668 25.5 9.91683 25.5C9.06683 25.5 8.50016 24.9334 8.50016 24.0834C8.50016 23.2334 9.06683 22.6667 9.91683 22.6667Z" fill="#32456F"/>
</svg>
