<svg width="34" height="34" viewBox="0 0 34 34" fill="none" xmlns="http://www.w3.org/2000/svg">
<path d="M13.1044 31.1667L12.5377 26.6334C12.2308 26.5153 11.9418 26.3737 11.6707 26.2084C11.3996 26.0431 11.1338 25.866 10.8731 25.6771L6.65853 27.448L2.7627 20.7188L6.41061 17.9563C6.387 17.791 6.3752 17.6319 6.3752 17.4789V16.5226C6.3752 16.3687 6.387 16.2091 6.41061 16.0438L2.7627 13.2813L6.65853 6.55212L10.8731 8.32296C11.1328 8.13407 11.4044 7.95699 11.6877 7.79171C11.971 7.62643 12.2544 7.48476 12.5377 7.36671L13.1044 2.83337H20.896L21.4627 7.36671C21.7696 7.48476 22.0591 7.62643 22.3311 7.79171C22.6031 7.95699 22.8685 8.13407 23.1273 8.32296L27.3419 6.55212L31.2377 13.2813L27.5898 16.0438C27.6134 16.2091 27.6252 16.3687 27.6252 16.5226V17.4775C27.6252 17.6314 27.6016 17.791 27.5544 17.9563L31.2023 20.7188L27.3064 27.448L23.1273 25.6771C22.8676 25.866 22.596 26.0431 22.3127 26.2084C22.0294 26.3737 21.746 26.5153 21.4627 26.6334L20.896 31.1667H13.1044ZM17.071 21.9584C18.4405 21.9584 19.6092 21.4743 20.5773 20.5063C21.5453 19.5382 22.0294 18.3695 22.0294 17C22.0294 15.6306 21.5453 14.4618 20.5773 13.4938C19.6092 12.5257 18.4405 12.0417 17.071 12.0417C15.678 12.0417 14.5031 12.5257 13.5464 13.4938C12.5896 14.4618 12.1118 15.6306 12.1127 17C12.1127 18.3695 12.5911 19.5382 13.5478 20.5063C14.5045 21.4743 15.6789 21.9584 17.071 21.9584Z" fill="#878787"/>
</svg>
