<svg width="34" height="34" viewBox="0 0 34 34" fill="none" xmlns="http://www.w3.org/2000/svg">
<path d="M17.0002 14.1667C18.5031 14.1667 19.9444 13.5697 21.0071 12.507C22.0698 11.4443 22.6668 10.0029 22.6668 8.50004C22.6668 6.99715 22.0698 5.55581 21.0071 4.4931C19.9444 3.4304 18.5031 2.83337 17.0002 2.83337C15.4973 2.83337 14.0559 3.4304 12.9932 4.4931C11.9305 5.55581 11.3335 6.99715 11.3335 8.50004C11.3335 10.0029 11.9305 11.4443 12.9932 12.507C14.0559 13.5697 15.4973 14.1667 17.0002 14.1667ZM7.79183 18.4167C8.73114 18.4167 9.63198 18.0436 10.2962 17.3794C10.9604 16.7152 11.3335 15.8144 11.3335 14.875C11.3335 13.9357 10.9604 13.0349 10.2962 12.3707C9.63198 11.7065 8.73114 11.3334 7.79183 11.3334C6.85252 11.3334 5.95168 11.7065 5.28749 12.3707C4.6233 13.0349 4.25016 13.9357 4.25016 14.875C4.25016 15.8144 4.6233 16.7152 5.28749 17.3794C5.95168 18.0436 6.85252 18.4167 7.79183 18.4167ZM29.7502 14.875C29.7502 15.8144 29.377 16.7152 28.7128 17.3794C28.0486 18.0436 27.1478 18.4167 26.2085 18.4167C25.2692 18.4167 24.3684 18.0436 23.7042 17.3794C23.04 16.7152 22.6668 15.8144 22.6668 14.875C22.6668 13.9357 23.04 13.0349 23.7042 12.3707C24.3684 11.7065 25.2692 11.3334 26.2085 11.3334C27.1478 11.3334 28.0486 11.7065 28.7128 12.3707C29.377 13.0349 29.7502 13.9357 29.7502 14.875ZM17.0002 15.5834C18.8788 15.5834 20.6805 16.3297 22.0088 17.658C23.3372 18.9864 24.0835 20.7881 24.0835 22.6667V31.1667H9.91683V22.6667C9.91683 20.7881 10.6631 18.9864 11.9915 17.658C13.3199 16.3297 15.1215 15.5834 17.0002 15.5834ZM7.0835 22.6667C7.0835 21.685 7.22516 20.7372 7.4915 19.8419L7.25066 19.8617C6.03641 19.995 4.9141 20.5719 4.09895 21.4817C3.2838 22.3915 2.83318 23.5702 2.8335 24.7917V31.1667H7.0835V22.6667ZM31.1668 31.1667V24.7917C31.167 23.5286 30.685 22.313 29.8194 21.3931C28.9538 20.4732 27.7697 19.9184 26.5088 19.8419C26.7737 20.7372 26.9168 21.685 26.9168 22.6667V31.1667H31.1668Z" fill="#32456F"/>
</svg>
