<svg width="2007" height="1855" viewBox="0 0 2007 1855" fill="none" xmlns="http://www.w3.org/2000/svg">
<path d="M1882.76 1404.89C1882.76 1584.35 1737.28 1729.83 1557.82 1729.83C1378.36 1729.83 1232.88 1584.35 1232.88 1404.89C1232.88 1225.43 1378.36 1079.95 1557.82 1079.95C1737.28 1079.95 1882.76 1225.43 1882.76 1404.89Z" stroke="#E36B4B" stroke-width="248.485"/>
<path d="M1328.59 449.184C1328.59 628.643 1183.11 774.124 1003.65 774.124C824.19 774.124 678.709 628.643 678.709 449.184C678.709 269.724 824.19 124.243 1003.65 124.243C1183.11 124.243 1328.59 269.724 1328.59 449.184Z" stroke="#E36B4B" stroke-width="248.485"/>
<path d="M774.124 1404.9C774.124 1584.36 628.643 1729.84 449.183 1729.84C269.724 1729.84 124.243 1584.36 124.243 1404.9C124.243 1225.44 269.724 1079.96 449.183 1079.96C628.643 1079.96 774.124 1225.44 774.124 1404.9Z" stroke="#E36B4B" stroke-width="248.485"/>
<path fill-rule="evenodd" clip-rule="evenodd" d="M1141.69 594.859C1180.29 558.281 1204.36 506.53 1204.36 449.155C1204.36 411.773 1194.14 376.777 1176.34 346.811C1510.52 428.618 1758.48 730.091 1758.48 1089.48C1758.48 1162.59 1748.22 1233.3 1729.06 1300.26C1693.79 1242.63 1630.26 1204.17 1557.74 1204.17C1535.76 1204.17 1514.61 1207.7 1494.82 1214.23C1504.74 1174.28 1510 1132.5 1510 1089.48C1510 855.807 1354.7 658.407 1141.69 594.859ZM993.912 1854.05C1217.26 1854.05 1418.24 1758.28 1558.02 1605.57L1557.74 1605.57C1462.73 1605.57 1383.14 1539.55 1362.34 1450.87C1268.68 1546.34 1138.21 1605.57 993.912 1605.57C857.253 1605.57 733.001 1552.45 640.673 1465.74C614.897 1546.82 538.994 1605.57 449.369 1605.57C442.444 1605.57 435.602 1605.22 428.858 1604.54C568.684 1757.85 770.064 1854.05 993.912 1854.05ZM265.835 1323.54C242.14 1249.77 229.345 1171.12 229.345 1089.48C229.345 722.003 488.594 415.078 834.172 341.623C814.411 372.706 802.964 409.594 802.964 449.155C802.964 504.335 825.233 554.314 861.273 590.595C640.519 649.134 477.825 850.307 477.825 1089.48C477.825 1130.49 482.608 1170.39 491.649 1208.63C478.017 1205.71 463.873 1204.17 449.369 1204.17C367.479 1204.17 297.045 1253.22 265.835 1323.54Z" fill="#E36B4B"/>
</svg>
