<svg width="56" height="56" viewBox="0 0 56 56" fill="none" xmlns="http://www.w3.org/2000/svg">
<path d="M7 40.7457V47.839C7 48.4924 7.51333 49.0057 8.16667 49.0057H15.26C15.5633 49.0057 15.8667 48.889 16.0767 48.6557L41.5567 23.199L32.8067 14.449L7.35 39.9057C7.11667 40.139 7 40.419 7 40.7457ZM48.3233 16.4324C48.5396 16.2165 48.7113 15.9601 48.8283 15.6778C48.9454 15.3956 49.0057 15.093 49.0057 14.7874C49.0057 14.4818 48.9454 14.1792 48.8283 13.8969C48.7113 13.6146 48.5396 13.3582 48.3233 13.1424L42.8633 7.68237C42.6475 7.46606 42.3911 7.29445 42.1088 7.17736C41.8265 7.06027 41.5239 7 41.2183 7C40.9127 7 40.6101 7.06027 40.3279 7.17736C40.0456 7.29445 39.7892 7.46606 39.5733 7.68237L35.3033 11.9524L44.0533 20.7024L48.3233 16.4324Z" fill="#32456F"/>
</svg>
