<svg width="69" height="69" viewBox="0 0 69 69" fill="none" xmlns="http://www.w3.org/2000/svg">
<g clip-path="url(#clip0_36_249)">
<path d="M69 34.5C69 15.4463 53.5537 0 34.5 0C15.4463 0 0 15.4463 0 34.5C0 51.7198 12.6162 65.9928 29.1094 68.5809V44.4727H20.3496V34.5H29.1094V26.8992C29.1094 18.2527 34.2601 13.4766 42.1407 13.4766C45.9152 13.4766 49.8633 14.1504 49.8633 14.1504V22.6406H45.513C41.2272 22.6406 39.8906 25.3001 39.8906 28.0286V34.5H49.459L47.9294 44.4727H39.8906V68.5809C56.3838 65.9928 69 51.7201 69 34.5Z" fill="#1877F2"/>
<path d="M47.9294 44.4727L49.459 34.5H39.8906V28.0286C39.8906 25.2998 41.2272 22.6406 45.513 22.6406H49.8633V14.1504C49.8633 14.1504 45.9152 13.4766 42.1404 13.4766C34.2601 13.4766 29.1094 18.2527 29.1094 26.8992V34.5H20.3496V44.4727H29.1094V68.5809C30.8926 68.8603 32.695 69.0005 34.5 69C36.305 69.0005 38.1074 68.8604 39.8906 68.5809V44.4727H47.9294Z" fill="white"/>
</g>
<defs>
<clipPath id="clip0_36_249">
<rect width="69" height="69" fill="white"/>
</clipPath>
</defs>
</svg>
