<svg width="69" height="69" viewBox="0 0 69 69" fill="none" xmlns="http://www.w3.org/2000/svg">
<g clip-path="url(#clip0_36_257)">
<path d="M52.8281 0H16.1719C7.2404 0 0 7.2404 0 16.1719V52.8281C0 61.7596 7.2404 69 16.1719 69H52.8281C61.7596 69 69 61.7596 69 52.8281V16.1719C69 7.2404 61.7596 0 52.8281 0Z" fill="url(#paint0_radial_36_257)"/>
<path d="M52.8281 0H16.1719C7.2404 0 0 7.2404 0 16.1719V52.8281C0 61.7596 7.2404 69 16.1719 69H52.8281C61.7596 69 69 61.7596 69 52.8281V16.1719C69 7.2404 61.7596 0 52.8281 0Z" fill="url(#paint1_radial_36_257)"/>
<path d="M34.5024 7.54688C27.1825 7.54688 26.2637 7.57895 23.3888 7.70967C20.5194 7.8412 18.5607 8.29536 16.8471 8.96191C15.0741 9.6503 13.5704 10.5713 12.0723 12.0699C10.5729 13.5682 9.65191 15.0719 8.96138 16.8441C8.29294 18.5583 7.83824 20.5178 7.70913 23.3859C7.58057 26.261 7.54688 27.1801 7.54688 34.5003C7.54688 41.8205 7.57922 42.7363 7.70967 45.6112C7.84174 48.4806 8.2959 50.4393 8.96191 52.1529C9.65084 53.9259 10.5718 55.4296 12.0704 56.9277C13.5682 58.4271 15.0719 59.3502 16.8435 60.0386C18.5586 60.7052 20.5175 61.1593 23.3864 61.2909C26.2615 61.4216 27.1795 61.4537 34.4992 61.4537C41.8199 61.4537 42.7358 61.4216 45.6106 61.2909C48.48 61.1593 50.4409 60.7052 52.1559 60.0386C53.9281 59.3502 55.4296 58.4271 56.9272 56.9277C58.4266 55.4296 59.3473 53.9259 60.0381 52.1538C60.7006 50.4393 61.1556 48.48 61.2903 45.6117C61.4194 42.7369 61.4531 41.8205 61.4531 34.5003C61.4531 27.1801 61.4194 26.2615 61.2903 23.3864C61.1556 20.517 60.7006 18.5586 60.0381 16.8449C59.3473 15.0719 58.4266 13.5682 56.9272 12.0699C55.428 10.5707 53.9286 9.64976 52.1543 8.96218C50.436 8.29536 48.4763 7.84093 45.6068 7.70967C42.7318 7.57895 41.8164 7.54688 34.4941 7.54688H34.5024ZM32.0845 12.4041C32.8022 12.403 33.603 12.4041 34.5024 12.4041C41.6992 12.4041 42.552 12.43 45.3939 12.5591C48.0218 12.6793 49.4482 13.1184 50.3983 13.4873C51.6562 13.9757 52.5529 14.5598 53.4958 15.5034C54.4391 16.4468 55.0229 17.3451 55.5127 18.603C55.8816 19.5518 56.3213 20.9782 56.4409 23.6061C56.57 26.4475 56.5981 27.3008 56.5981 34.4941C56.5981 41.6873 56.57 42.5409 56.4409 45.3821C56.3207 48.01 55.8816 49.4363 55.5127 50.3854C55.0243 51.6433 54.4391 52.5389 53.4958 53.4817C52.5524 54.4251 51.6567 55.0089 50.3983 55.4976C49.4493 55.8682 48.0218 56.3062 45.3939 56.4264C42.5525 56.5555 41.6992 56.5835 34.5024 56.5835C27.3054 56.5835 26.4523 56.5555 23.6112 56.4264C20.9833 56.3051 19.5569 55.866 18.606 55.497C17.3484 55.0084 16.4498 54.4246 15.5064 53.4812C14.563 52.5378 13.9792 51.6416 13.4895 50.3832C13.1205 49.4342 12.6809 48.0078 12.5612 45.3799C12.4321 42.5385 12.4063 41.6852 12.4063 34.4873C12.4063 27.2898 12.4321 26.4407 12.5612 23.5993C12.6814 20.9714 13.1205 19.5451 13.4895 18.595C13.9782 17.3371 14.563 16.4387 15.5067 15.4954C16.45 14.552 17.3484 13.9679 18.6063 13.4784C19.5564 13.1078 20.9833 12.6699 23.6112 12.5491C26.0976 12.4367 27.0612 12.403 32.0845 12.3974V12.4041ZM48.89 16.8794C47.1044 16.8794 45.6556 18.3268 45.6556 20.1127C45.6556 21.8983 47.1044 23.3471 48.89 23.3471C50.6757 23.3471 52.1244 21.8983 52.1244 20.1127C52.1244 18.327 50.6757 16.8783 48.89 16.8783V16.8794ZM34.5024 20.6585C26.8585 20.6585 20.6609 26.8561 20.6609 34.5003C20.6609 42.1444 26.8585 48.3391 34.5024 48.3391C42.1466 48.3391 48.342 42.1444 48.342 34.5003C48.342 26.8564 42.1461 20.6585 34.5019 20.6585H34.5024ZM34.5024 25.5157C39.4642 25.5157 43.487 29.5379 43.487 34.5003C43.487 39.4621 39.4642 43.4848 34.5024 43.4848C29.5404 43.4848 25.5181 39.4621 25.5181 34.5003C25.5181 29.5379 29.5404 25.5157 34.5024 25.5157Z" fill="white"/>
</g>
<defs>
<radialGradient id="paint0_radial_36_257" cx="0" cy="0" r="1" gradientUnits="userSpaceOnUse" gradientTransform="translate(18.3281 74.3143) rotate(-90) scale(68.3841 63.6026)">
<stop stop-color="#FFDD55"/>
<stop offset="0.1" stop-color="#FFDD55"/>
<stop offset="0.5" stop-color="#FF543E"/>
<stop offset="1" stop-color="#C837AB"/>
</radialGradient>
<radialGradient id="paint1_radial_36_257" cx="0" cy="0" r="1" gradientUnits="userSpaceOnUse" gradientTransform="translate(-11.5578 4.97043) rotate(78.681) scale(30.5681 126.003)">
<stop stop-color="#3771C8"/>
<stop offset="0.128" stop-color="#3771C8"/>
<stop offset="1" stop-color="#6600FF" stop-opacity="0"/>
</radialGradient>
<clipPath id="clip0_36_257">
<rect width="69" height="69" fill="white"/>
</clipPath>
</defs>
</svg>
